<svg width="814" height="581" viewBox="0 0 814 581" fill="none" xmlns="http://www.w3.org/2000/svg">
<path d="M152.208 97.5449L480.208 247.545" stroke="white" stroke-dasharray="6 6"/>
<path d="M141.827 463.531L479.827 338.531" stroke="white" stroke-dasharray="6 6"/>
<path d="M78.5 155V429" stroke="white" stroke-dasharray="6 6"/>
<g filter="url(#filter0_b_2001_330)">
<path d="M627 481C730.277 481 814 397.277 814 294C814 190.723 730.277 107 627 107C523.723 107 440 190.723 440 294C440 397.277 523.723 481 627 481Z" fill="#D9D9D9" fill-opacity="0.08"/>
</g>
<path d="M627 480.5C730.001 480.5 813.5 397.001 813.5 294C813.5 190.999 730.001 107.5 627 107.5C523.999 107.5 440.5 190.999 440.5 294C440.5 397.001 523.999 480.5 627 480.5Z" stroke="white" stroke-opacity="0.24"/>
<path d="M473 238.281C480.198 216.499 492.312 196.666 508.403 180.317C524.495 163.969 544.134 151.542 565.798 144" stroke="white" stroke-opacity="0.56" stroke-dasharray="5 5"/>
<path d="M542.82 434.124C523.341 424.135 506.294 409.991 492.883 392.69C479.471 375.389 470.023 355.354 465.205 334" stroke="white" stroke-opacity="0.56" stroke-dasharray="5 5"/>
<path d="M627 425C699.349 425 758 366.349 758 294C758 221.651 699.349 163 627 163C554.651 163 496 221.651 496 294C496 366.349 554.651 425 627 425Z" fill="url(#paint0_linear_2001_330)"/>
<path d="M556 269.82V306.592L576.894 306.449L597.701 306.307L602.792 304.931C613.766 301.989 620.702 295.726 625.004 284.955C626.847 280.495 627.637 265.834 626.408 259.808C624.301 249.654 618.419 241.446 610.342 237.555C606.129 235.515 604.636 235.04 597.876 233.522C596.296 233.19 588.483 233 575.753 233H556V269.82ZM595.242 247.899C604.197 250.366 608.674 257.625 608.674 269.725C608.674 283.247 603.583 290.317 592.609 292.073C590.151 292.452 585.059 292.784 581.284 292.784H574.436V269.725V246.617L583.478 246.855C589.273 247.044 593.574 247.377 595.242 247.899Z" fill="white"/>
<path d="M656.34 246.594C650.93 247.697 649.95 248.081 645.33 250.623C641.34 252.877 638.23 256.282 638.14 258.632C638.05 260.934 640.09 260.838 641.6 258.44C645.51 252.349 656.43 248.129 666.91 248.656C671.17 248.896 677.38 250.335 680.58 251.822C683.15 253.069 687.86 257.193 689.37 259.591C690.79 261.893 692.21 262.517 693.01 261.174C694.16 259.207 689.37 253.452 683.86 250.095C677.47 246.258 665.75 244.723 656.34 246.594Z" fill="white"/>
<path d="M660.25 250.766C646.31 252.493 637.7 263.044 637.61 278.296C637.61 281.077 636.987 284.818 636.277 286.689C634.59 290.861 634.59 291.245 636.188 291.245C639.12 291.245 640.09 288.703 641.16 277.816C642.31 266.018 644.98 260.598 651.46 256.905C655.28 254.699 657.85 254.124 664.69 253.836C670.9 253.596 670.9 253.596 670.9 252.157C670.9 250.766 670.81 250.719 666.46 250.623C664.06 250.623 661.22 250.671 660.25 250.766Z" fill="white"/>
<path d="M672.77 252.637C672.05 253.692 672.85 254.507 675.78 255.658C681.91 258.104 686.44 263.572 688.75 271.102C690.25 275.946 690.34 285.586 689.1 291.197C688.39 294.027 688.39 295.369 689.1 295.753C691.05 296.808 691.94 294.986 692.83 287.84C694.52 274.123 691.05 262.325 683.51 256.522C681.02 254.603 675.69 251.918 674.36 251.918C673.83 251.918 673.12 252.253 672.77 252.637Z" fill="white"/>
<path d="M658.29 255.946C654.74 257.001 652.7 258.296 652.7 259.399C652.7 261.03 653.94 261.174 656.78 259.831C659.63 258.536 664.69 257.913 668.77 258.392C670.46 258.584 673.39 259.687 675.78 260.982C680.49 263.524 683.33 267.553 684.31 273.164C684.93 276.617 685.55 277.288 687.32 276.137C688.12 275.61 688.03 274.363 687.06 270.526C684.93 262.996 681.38 259.16 674.19 256.666C670.9 255.515 669.21 255.275 665.22 255.323C662.47 255.371 659.36 255.658 658.29 255.946Z" fill="white"/>
<path d="M661.22 260.55C659.8 260.79 657.32 261.653 655.72 262.517C651.19 264.867 647.29 270.526 649.15 272.061C650.22 272.972 651.28 272.349 652.7 269.903C655.54 264.867 661.58 262.325 668.06 263.476C670.01 263.812 672.76 264.867 674.36 265.922C677.47 267.888 678.45 267.84 678.45 265.778C678.45 264.051 673.21 261.222 668.77 260.55C665.13 260.023 664.69 260.023 661.22 260.55Z" fill="white"/>
<path d="M636.366 261.126C634.59 264.147 633.969 265.682 633.17 269.423C632.105 274.843 632.016 285.346 633.081 285.729C634.768 286.257 635.212 284.77 635.567 278.104C635.745 274.411 636.544 269.615 637.34 267.505C638.14 265.394 638.76 263.044 638.85 262.277C638.94 260.838 636.987 259.975 636.366 261.126Z" fill="white"/>
<path d="M648.79 261.605C643.82 265.73 640.09 277.864 642.94 280.742C644.71 282.516 645.33 281.605 645.87 276.233C646.4 270.766 647.82 267.121 650.39 264.339C652.88 261.653 651.55 259.351 648.79 261.605Z" fill="white"/>
<path d="M691.76 263.284C691.76 263.764 692.38 266.497 693.1 269.423C693.81 272.301 694.43 277.193 694.43 280.262C694.43 283.331 694.69 285.921 694.96 286.113C695.23 286.257 696.02 286.257 696.74 286.113C698.42 285.777 698.42 277.001 696.74 269.663C695.31 263.476 694.78 262.469 693.01 262.469C692.3 262.469 691.76 262.852 691.76 263.284Z" fill="white"/>
<path d="M658.03 265.922C654.92 267.505 654.3 269.039 653.06 278.296C651.46 290.334 651.46 290.286 653.5 290.286C654.92 290.286 655.19 289.758 655.72 285.873C655.99 283.475 656.25 279.639 656.25 277.384C656.25 272.349 657.32 270.19 660.69 268.224L663.27 266.737L666.73 267.696C672.05 269.183 674.1 272.444 674.1 279.734C674.1 288.127 672.05 296.329 668.59 301.892C667.7 303.379 667.17 304.962 667.44 305.393C670.72 309.997 677.65 292.732 677.47 280.214C677.38 272.301 675.52 267.984 671.17 265.874C668.59 264.531 660.69 264.579 658.03 265.922Z" fill="white"/>
<path d="M678.18 268.368C677.91 268.752 678.09 270.718 678.54 272.828C679.07 274.89 679.33 279.303 679.16 282.612C678.89 287.792 679.07 288.607 680.31 288.751C681.55 288.847 681.82 288.175 682.35 284.339C682.97 279.543 682.26 270.622 681.02 268.8C680.22 267.601 678.89 267.409 678.18 268.368Z" fill="white"/>
<path d="M661.05 269.231C659.63 270.094 659.36 271.006 659.36 275.61C659.36 280.022 659.63 280.933 660.69 280.933C661.76 280.933 662.11 280.07 662.29 276.521C662.56 271.773 663.71 270.43 666.37 271.821C668.59 273.068 668.95 275.658 668.06 284.003C667.17 292.156 667.26 293.355 669.04 293.019C670.1 292.828 671.97 283.667 672.14 277.768C672.23 273.691 670.55 269.903 668.06 268.895C665.75 267.936 663 268.08 661.05 269.231Z" fill="white"/>
<path d="M648.88 273.835C648.53 273.979 648.26 275.994 648.17 278.248C648.08 286.641 647.02 290.478 643.91 293.835C642.31 295.513 641.16 297.288 641.34 297.767C641.96 299.638 643.82 298.823 646.93 295.369C650.04 291.868 650.22 291.437 651.1 283.907C652.17 275.034 651.64 272.349 648.88 273.835Z" fill="white"/>
<path d="M663.98 273.835C663.62 273.979 663.35 277.384 663.35 281.365C663.35 291.053 661.14 297.336 655.9 302.324C654.3 303.81 653.94 304.578 654.57 305.201C655.9 306.544 657.67 305.777 660.07 302.851C664.69 297.288 666.91 290.286 666.91 280.933C666.91 274.411 666.11 272.636 663.98 273.835Z" fill="white"/>
<path d="M685.37 278.104C685.11 278.344 684.57 281.749 684.22 285.729C683.95 289.662 682.89 294.986 681.91 297.576C679.87 303.235 679.87 303.235 681.82 303.235C683.77 303.235 685.11 300.597 686.44 294.122C688.21 285.25 688.48 279.543 687.06 278.583C686.35 278.104 685.64 277.864 685.37 278.104Z" fill="white"/>
<path d="M642.58 282.708C642.31 283.044 641.96 284.818 641.78 286.641C641.52 288.943 640.8 290.334 639.47 291.293C637.43 292.78 637.08 294.362 638.59 294.89C641.43 295.801 645.87 289.47 645.42 285.154C645.15 282.612 643.47 281.173 642.58 282.708Z" fill="white"/>
<path d="M659.45 282.708C659.27 283.044 658.83 284.962 658.56 286.928C657.76 291.677 655.81 295.753 652.61 298.727C649.68 301.556 649.24 303.379 651.64 303.139C653.59 302.947 659 297.048 660.51 293.355C662.11 289.47 662.38 282.516 660.96 282.276C660.34 282.132 659.63 282.324 659.45 282.708Z" fill="white"/>
<path d="M678.09 292.3C677.83 292.924 677.03 295.178 676.32 297.384C675.52 299.59 674.27 302.132 673.56 303.043C672.23 304.818 672.59 306.113 674.45 306.113C676.4 306.113 679.42 300.453 680.76 294.218C681.29 291.677 681.11 291.245 679.87 291.245C679.16 291.245 678.27 291.724 678.09 292.3Z" fill="white"/>
<path d="M650.48 293.691C650.13 294.506 648.88 296.377 647.73 297.767C643.56 302.899 646.49 304.194 650.93 299.206C654.12 295.561 654.83 292.588 652.52 292.3C651.55 292.204 650.93 292.588 650.48 293.691Z" fill="white"/>
<path d="M664.77 297.767C663.98 299.542 662.47 301.796 661.58 302.803C659.27 305.153 659.27 306.592 661.49 306.592C662.82 306.592 663.71 305.777 665.49 303.091C668.5 298.535 669.75 295.657 669.13 295.082C667.7 293.835 666.11 294.794 664.77 297.767Z" fill="white"/>
<path d="M556 332.743V355L568.568 354.914L581.083 354.828L584.146 353.995C590.747 352.214 594.918 348.423 597.506 341.904C598.615 339.205 599.09 330.331 598.351 326.684C597.083 320.538 593.545 315.569 588.687 313.215C586.152 311.98 585.255 311.692 581.189 310.773C580.238 310.572 575.538 310.458 567.881 310.458H556V332.743ZM579.604 319.475C584.991 320.969 587.684 325.362 587.684 332.686C587.684 340.87 584.621 345.15 578.02 346.212C576.542 346.442 573.479 346.643 571.208 346.643H567.089V332.686V318.7L572.528 318.843C576.014 318.958 578.601 319.159 579.604 319.475Z" fill="white"/>
<path d="M646.61 317.477V321.591H643.48H640.35V325.421V329.251H643.43H646.56L646.72 339.097C646.93 349.056 646.98 349.368 648.96 351.808C650.79 354.021 655.65 355.326 660.72 354.929C665.21 354.589 664.9 354.872 664.9 350.957V347.439L662.23 347.354C659.93 347.268 659.36 347.127 658.42 346.474C657.38 345.708 657.32 345.282 657.17 337.451L657.01 329.251H660.67H664.38V325.421V321.591H660.72H657.06V317.477V313.362H651.84H646.61V317.477Z" fill="white"/>
<path d="M678.47 321.25C673.37 322.347 671.59 323.107 669.46 325.076C666.49 327.804 666.13 333.318 668.73 336.328C671.02 339.028 673.37 340.012 680.5 341.306C684.35 341.981 685.34 342.263 686.49 342.882C687.48 343.388 687.58 345.441 686.75 346.482C685.55 347.917 680.92 348.395 678.37 347.382C677.32 346.96 675.4 344.794 675.34 344.035C675.34 343.613 674.77 343.557 670.66 343.557H665.97V344.822C665.97 345.498 666.23 346.735 666.54 347.551C668.83 353.317 676.28 355.99 686.39 354.668C689.82 354.189 690.5 353.993 693.05 352.586C697.11 350.364 698 348.901 698 344.541C698 338.465 695.4 336.553 684.35 334.527C678.83 333.486 677.43 332.783 677.43 330.899C677.48 328.451 681.18 327.354 685.08 328.648C686.44 329.07 686.96 329.548 687.69 330.899L688.63 332.586H692.95H697.22V331.799C697.17 327.129 693.52 323.191 688 321.729C686.02 321.222 679.98 320.913 678.47 321.25Z" fill="white"/>
<path d="M614.22 318.684C610.963 319.352 610.375 319.584 607.598 321.123C605.195 322.487 603.326 324.548 603.273 325.971C603.219 327.364 604.448 327.306 605.356 325.854C607.705 322.168 614.273 319.613 620.575 319.933C623.138 320.078 626.876 320.949 628.798 321.848C630.347 322.603 633.177 325.1 634.085 326.551C634.939 327.944 635.794 328.322 636.274 327.509C636.969 326.319 634.085 322.835 630.774 320.803C626.929 318.481 619.88 317.552 614.22 318.684Z" fill="white"/>
<path d="M616.57 321.21C608.186 322.255 603.006 328.641 602.953 337.872C602.953 339.556 602.579 341.82 602.152 342.952C601.137 345.478 601.137 345.71 602.098 345.71C603.86 345.71 604.448 344.171 605.089 337.582C605.783 330.441 607.385 327.161 611.283 324.926C613.579 323.59 615.128 323.242 619.24 323.068C622.978 322.923 622.978 322.923 622.978 322.052C622.978 321.21 622.924 321.181 620.308 321.123C618.866 321.123 617.157 321.152 616.57 321.21Z" fill="white"/>
<path d="M624.099 322.342C623.672 322.981 624.153 323.474 625.915 324.171C629.599 325.651 632.323 328.96 633.711 333.518C634.619 336.45 634.672 342.285 633.925 345.681C633.498 347.394 633.498 348.206 633.925 348.439C635.1 349.077 635.634 347.974 636.168 343.649C637.18 335.347 635.1 328.206 630.561 324.693C629.065 323.532 625.861 321.907 625.06 321.907C624.74 321.907 624.313 322.11 624.099 322.342Z" fill="white"/>
<path d="M615.395 324.345C613.259 324.984 612.031 325.767 612.031 326.435C612.031 327.422 612.778 327.509 614.487 326.696C616.196 325.912 619.24 325.535 621.696 325.825C622.711 325.942 624.473 326.609 625.915 327.393C628.745 328.931 630.454 331.37 631.041 334.766C631.415 336.856 631.789 337.263 632.857 336.566C633.337 336.247 633.284 335.492 632.697 333.17C631.415 328.612 629.279 326.29 624.954 324.78C622.978 324.084 621.963 323.939 619.56 323.968C617.905 323.997 616.036 324.171 615.395 324.345Z" fill="white"/>
<path d="M617.157 327.132C616.303 327.277 614.807 327.799 613.846 328.322C611.123 329.744 608.773 333.17 609.895 334.099C610.535 334.65 611.176 334.273 612.031 332.792C613.739 329.744 617.371 328.206 621.269 328.902C622.444 329.106 624.099 329.744 625.06 330.383C626.929 331.573 627.517 331.544 627.517 330.296C627.517 329.251 624.366 327.538 621.696 327.132C619.507 326.812 619.24 326.812 617.157 327.132Z" fill="white"/>
<path d="M602.205 327.48C601.137 329.309 600.763 330.238 600.283 332.502C599.642 335.782 599.588 342.139 600.229 342.372C601.244 342.691 601.511 341.791 601.724 337.756C601.831 335.521 602.312 332.618 602.792 331.341C603.273 330.064 603.647 328.641 603.7 328.177C603.754 327.306 602.579 326.783 602.205 327.48Z" fill="white"/>
<path d="M609.681 327.77C606.691 330.267 604.448 337.611 606.157 339.353C607.225 340.427 607.598 339.875 607.919 336.624C608.239 333.315 609.094 331.109 610.642 329.425C612.137 327.799 611.336 326.406 609.681 327.77Z" fill="white"/>
<path d="M635.527 328.786C635.527 329.077 635.901 330.731 636.328 332.502C636.755 334.244 637.13 337.205 637.13 339.062C637.13 340.92 637.29 342.488 637.45 342.604C637.61 342.691 638.09 342.691 638.52 342.604C639.53 342.401 639.53 337.088 638.52 332.647C637.66 328.902 637.34 328.293 636.274 328.293C635.847 328.293 635.527 328.525 635.527 328.786Z" fill="white"/>
<path d="M615.235 330.383C613.366 331.341 612.992 332.27 612.244 337.872C611.283 345.158 611.283 345.129 612.511 345.129C613.366 345.129 613.526 344.81 613.846 342.459C614.006 341.007 614.167 338.685 614.167 337.321C614.167 334.273 614.807 332.966 616.837 331.776L618.385 330.876L620.468 331.457C623.672 332.357 624.9 334.331 624.9 338.743C624.9 343.823 623.672 348.787 621.589 352.154C621.055 353.054 620.735 354.012 620.895 354.273C622.871 357.06 627.036 346.61 626.929 339.033C626.876 334.244 625.755 331.631 623.138 330.354C621.589 329.541 616.837 329.57 615.235 330.383Z" fill="white"/>
<path d="M627.357 331.863C627.196 332.096 627.303 333.286 627.57 334.563C627.891 335.811 628.051 338.482 627.944 340.485C627.784 343.62 627.891 344.113 628.638 344.2C629.386 344.259 629.546 343.852 629.866 341.53C630.24 338.627 629.813 333.228 629.065 332.125C628.585 331.399 627.784 331.283 627.357 331.863Z" fill="white"/>
<path d="M617.05 332.386C616.196 332.908 616.036 333.46 616.036 336.247C616.036 338.917 616.196 339.469 616.837 339.469C617.477 339.469 617.691 338.946 617.798 336.798C617.958 333.924 618.652 333.112 620.254 333.953C621.589 334.708 621.803 336.276 621.269 341.327C620.735 346.261 620.788 346.987 621.856 346.784C622.497 346.668 623.618 341.123 623.725 337.553C623.779 335.086 622.764 332.792 621.269 332.183C619.88 331.602 618.225 331.689 617.05 332.386Z" fill="white"/>
<path d="M609.734 335.173C609.521 335.26 609.361 336.479 609.307 337.843C609.254 342.923 608.613 345.245 606.744 347.277C605.783 348.293 605.089 349.368 605.195 349.658C605.569 350.79 606.691 350.296 608.56 348.206C610.429 346.087 610.535 345.826 611.069 341.269C611.71 335.898 611.39 334.273 609.734 335.173Z" fill="white"/>
<path d="M618.812 335.173C618.599 335.26 618.439 337.321 618.439 339.73C618.439 345.594 617.104 349.397 613.953 352.416C612.992 353.315 612.778 353.78 613.152 354.157C613.953 354.97 615.021 354.506 616.463 352.735C619.24 349.368 620.575 345.129 620.575 339.469C620.575 335.521 620.094 334.447 618.812 335.173Z" fill="white"/>
<path d="M631.682 337.756C631.522 337.901 631.201 339.962 630.988 342.372C630.828 344.752 630.187 347.974 629.599 349.542C628.371 352.967 628.371 352.967 629.546 352.967C630.721 352.967 631.522 351.371 632.323 347.452C633.391 342.081 633.551 338.627 632.697 338.046C632.269 337.756 631.842 337.611 631.682 337.756Z" fill="white"/>
<path d="M605.943 340.543C605.783 340.746 605.569 341.82 605.462 342.923C605.302 344.317 604.875 345.158 604.074 345.739C602.846 346.639 602.632 347.597 603.54 347.916C605.249 348.468 607.919 344.636 607.652 342.023C607.492 340.485 606.477 339.614 605.943 340.543Z" fill="white"/>
<path d="M616.089 340.543C615.982 340.746 615.715 341.907 615.555 343.097C615.075 345.971 613.9 348.439 611.977 350.238C610.215 351.951 609.948 353.054 611.39 352.909C612.565 352.793 615.822 349.222 616.73 346.987C617.691 344.636 617.851 340.427 616.997 340.282C616.623 340.195 616.196 340.311 616.089 340.543Z" fill="white"/>
<path d="M627.303 346.349C627.143 346.726 626.662 348.09 626.235 349.426C625.755 350.761 625.007 352.299 624.58 352.851C623.779 353.925 623.992 354.709 625.114 354.709C626.289 354.709 628.104 351.283 628.905 347.51C629.226 345.971 629.119 345.71 628.371 345.71C627.944 345.71 627.41 346 627.303 346.349Z" fill="white"/>
<path d="M610.696 347.19C610.482 347.684 609.734 348.816 609.04 349.658C606.53 352.764 608.293 353.548 610.963 350.529C612.885 348.323 613.312 346.523 611.924 346.349C611.336 346.291 610.963 346.523 610.696 347.19Z" fill="white"/>
<path d="M619.293 349.658C618.812 350.732 617.905 352.096 617.371 352.706C615.982 354.128 615.982 354.999 617.317 354.999C618.118 354.999 618.652 354.506 619.72 352.88C621.536 350.122 622.283 348.381 621.91 348.032C621.055 347.277 620.094 347.858 619.293 349.658Z" fill="white"/>
<path d="M77.5 155C120.302 155 155 120.302 155 77.5C155 34.6979 120.302 0 77.5 0C34.6979 0 0 34.6979 0 77.5C0 120.302 34.6979 155 77.5 155Z" fill="#FAFAFA" fill-opacity="0.08"/>
<path d="M77 139C110.689 139 138 111.689 138 78C138 44.3106 110.689 17 77 17C43.3106 17 16 44.3106 16 78C16 111.689 43.3106 139 77 139Z" fill="url(#paint1_linear_2001_330)"/>
<path d="M77.667 25C81.733 25 85.633 26.615 88.509 29.491C91.385 32.367 93 36.267 93 40.333C93 44.4 91.385 48.3 88.509 51.176C85.633 54.051 81.733 55.667 77.667 55.667C73.6 55.667 69.7 54.051 66.824 51.176C63.949 48.3 62.333 44.4 62.333 40.333C62.333 36.267 63.949 32.367 66.824 29.491C69.7 26.615 73.6 25 77.667 25ZM77.667 63.333C94.61 63.333 108.333 70.195 108.333 78.667V86.333H47V78.667C47 70.195 60.723 63.333 77.667 63.333Z" fill="#FAFAFA"/>
<path d="M63.932 119.533C60.592 119.533 58.592 117.513 58.592 114.053V105.333H60.072V113.973C60.072 116.693 61.472 118.233 63.932 118.233C66.352 118.233 67.792 116.693 67.792 113.973V105.333H69.272V114.053C69.272 117.513 67.232 119.533 63.932 119.533ZM75.26 119.533C72.84 119.533 71.1 118.473 71 116.453H72.3C72.48 117.813 73.74 118.413 75.28 118.413C76.86 118.413 77.98 117.773 77.98 116.473C77.98 115.453 77.38 115.093 76.04 114.753L74.08 114.293C72.26 113.833 71.36 112.953 71.36 111.573C71.36 109.793 72.86 108.733 75.18 108.733C77.48 108.733 78.96 109.753 79.1 111.753H77.9C77.66 110.393 76.72 109.853 75.2 109.853C73.66 109.853 72.72 110.473 72.72 111.533C72.72 112.353 73.28 112.893 74.56 113.213L76.5 113.653C78.44 114.133 79.42 114.833 79.42 116.453C79.42 117.513 79.02 118.273 78.22 118.773C77.42 119.273 76.44 119.533 75.26 119.533ZM90.051 113.833C90.051 114.133 90.031 114.373 89.991 114.553H82.011C82.111 117.113 83.371 118.413 85.611 118.413C87.151 118.413 88.151 117.773 88.611 116.493H89.911C89.251 118.653 87.631 119.553 85.551 119.553C82.571 119.553 80.631 117.693 80.631 114.173C80.631 110.493 82.751 108.733 85.451 108.733C88.231 108.733 90.051 110.533 90.051 113.833ZM82.031 113.513H88.691C88.671 111.173 87.431 109.873 85.431 109.873C83.491 109.873 82.131 111.133 82.031 113.513ZM96.653 108.853C96.993 108.853 97.253 108.893 97.433 108.953V110.153C97.193 110.113 96.953 110.093 96.693 110.093C94.553 110.093 93.293 111.513 93.293 113.733V119.333H91.873V108.933H93.293V111.233H93.333C93.673 109.973 94.793 108.853 96.653 108.853Z" fill="#FAFAFA"/>
<g filter="url(#filter1_b_2001_330)">
<path d="M77.5 581C120.302 581 155 546.302 155 503.5C155 460.698 120.302 426 77.5 426C34.6979 426 0 460.698 0 503.5C0 546.302 34.6979 581 77.5 581Z" fill="#FAFAFA" fill-opacity="0.08"/>
</g>
<path d="M77 565C110.689 565 138 537.689 138 504C138 470.311 110.689 443 77 443C43.3106 443 16 470.311 16 504C16 537.689 43.3106 565 77 565Z" fill="url(#paint2_linear_2001_330)"/>
<path d="M116.261 558.384C104.115 567.207 89.3939 571.77 74.3869 571.363C59.3789 570.955 44.928 565.6 33.278 556.131C21.629 546.661 13.4359 533.608 9.97192 519" stroke="white" stroke-opacity="0.56" stroke-width="0.5" stroke-dasharray="6 6"/>
<path d="M77 459C81.067 459 84.967 460.615 87.842 463.491C90.718 466.367 92.333 470.267 92.333 474.333C92.333 478.4 90.718 482.3 87.842 485.176C84.967 488.051 81.067 489.667 77 489.667C72.934 489.667 69.033 488.051 66.158 485.176C63.282 482.3 61.667 478.4 61.667 474.333C61.667 470.267 63.282 466.367 66.158 463.491C69.033 460.615 72.934 459 77 459ZM77 497.333C93.943 497.333 107.667 504.195 107.667 512.667V520.333H46.333V512.667C46.333 504.195 60.057 497.333 77 497.333Z" fill="#FAFAFA"/>
<path d="M41.802 544.333V535.443H38.666V534.533H45.946V535.443H42.824V544.333H41.802ZM50.722 536.913C52.29 536.913 53.34 537.823 53.34 539.853V544.333H52.346V540.049C52.346 538.523 51.688 537.767 50.386 537.767C49.028 537.767 48.16 538.635 48.16 540.049V544.333H47.166V534.533H48.16V538.411C48.342 537.851 49.154 536.913 50.722 536.913ZM55.463 535.527C55.113 535.527 54.805 535.233 54.805 534.883C54.805 534.533 55.113 534.239 55.463 534.239C55.813 534.239 56.107 534.533 56.107 534.883C56.107 535.233 55.813 535.527 55.463 535.527ZM54.959 544.333V537.053H55.953V544.333H54.959ZM60.944 536.997C61.182 536.997 61.364 537.025 61.49 537.067V537.907C61.322 537.879 61.154 537.865 60.972 537.865C59.474 537.865 58.592 538.859 58.592 540.413V544.333H57.598V537.053H58.592V538.663H58.62C58.858 537.781 59.642 536.997 60.944 536.997ZM67.996 534.533H68.99V544.333H67.996V543.101C67.478 543.983 66.484 544.473 65.364 544.473C63.6 544.473 62.074 543.213 62.074 540.693C62.074 538.173 63.6 536.913 65.364 536.913C66.484 536.913 67.478 537.403 67.996 538.285V534.533ZM65.532 543.633C66.862 543.633 68.052 542.625 68.052 540.693C68.052 538.761 66.862 537.753 65.532 537.753C64.202 537.753 63.026 538.761 63.026 540.693C63.026 542.625 64.202 543.633 65.532 543.633ZM73.854 534.533H77.382C79.608 534.533 80.798 535.639 80.798 537.529C80.798 539.391 79.608 540.497 77.382 540.497H74.89V544.333H73.854V534.533ZM74.89 539.573H77.34C78.922 539.573 79.748 538.859 79.748 537.529C79.748 536.171 78.922 535.443 77.34 535.443H74.89V539.573ZM88.041 540.483C88.041 540.693 88.027 540.861 87.999 540.987H82.413C82.483 542.779 83.365 543.689 84.933 543.689C86.011 543.689 86.711 543.241 87.033 542.345H87.943C87.481 543.857 86.347 544.487 84.891 544.487C82.805 544.487 81.447 543.185 81.447 540.721C81.447 538.145 82.931 536.913 84.821 536.913C86.767 536.913 88.041 538.173 88.041 540.483ZM82.427 540.259H87.089C87.075 538.621 86.207 537.711 84.807 537.711C83.449 537.711 82.497 538.593 82.427 540.259ZM92.663 536.997C92.901 536.997 93.083 537.025 93.209 537.067V537.907C93.041 537.879 92.873 537.865 92.691 537.865C91.193 537.865 90.311 538.859 90.311 540.413V544.333H89.317V537.053H90.311V538.663H90.339C90.577 537.781 91.361 536.997 92.663 536.997ZM96.732 544.473C95.038 544.473 93.82 543.731 93.75 542.317H94.66C94.786 543.269 95.668 543.689 96.746 543.689C97.852 543.689 98.636 543.241 98.636 542.331C98.636 541.617 98.216 541.365 97.278 541.127L95.906 540.805C94.632 540.483 94.002 539.867 94.002 538.901C94.002 537.655 95.052 536.913 96.676 536.913C98.286 536.913 99.322 537.627 99.42 539.027H98.58C98.412 538.075 97.754 537.697 96.69 537.697C95.612 537.697 94.954 538.131 94.954 538.873C94.954 539.447 95.346 539.825 96.242 540.049L97.6 540.357C98.958 540.693 99.644 541.183 99.644 542.317C99.644 543.059 99.364 543.591 98.804 543.941C98.244 544.291 97.558 544.473 96.732 544.473ZM103.978 544.473C102.116 544.473 100.492 543.185 100.492 540.693C100.492 538.201 102.116 536.913 103.978 536.913C105.826 536.913 107.45 538.201 107.45 540.693C107.45 543.185 105.826 544.473 103.978 544.473ZM103.978 543.633C105.322 543.633 106.498 542.653 106.498 540.693C106.498 538.733 105.322 537.753 103.978 537.753C102.606 537.753 101.458 538.733 101.458 540.693C101.458 542.653 102.606 543.633 103.978 543.633ZM112.301 536.913C113.869 536.913 114.919 537.823 114.919 539.853V544.333H113.925V540.049C113.925 538.523 113.267 537.767 111.965 537.767C110.607 537.767 109.739 538.635 109.739 540.049V544.333H108.745V537.053H109.739V538.411C109.921 537.851 110.733 536.913 112.301 536.913Z" fill="#FAFAFA"/>
<path d="M9.27998 86.1452C7.60298 72.1072 10.334 57.8963 17.093 45.4793C23.853 33.0633 34.307 23.0552 47.006 16.8442C59.706 10.6332 74.023 8.52426 87.974 10.8123" stroke="white" stroke-opacity="0.56" stroke-width="0.7" stroke-dasharray="5 5"/>
<g filter="url(#filter2_b_2001_330)">
<path d="M78.1651 275H78.165C69.7896 275 63 281.79 63 290.165V290.553C63 298.929 69.7896 305.718 78.165 305.718H78.1651C86.5405 305.718 93.3301 298.929 93.3301 290.553V290.165C93.3301 281.79 86.5405 275 78.1651 275Z" fill="white" fill-opacity="0.1"/>
</g>
<path d="M78.1651 275.5H78.165C70.0658 275.5 63.5 282.066 63.5 290.165V290.553C63.5 298.653 70.0658 305.218 78.165 305.218H78.1651C86.2644 305.218 92.8301 298.653 92.8301 290.553V290.165C92.8301 282.066 86.2644 275.5 78.1651 275.5Z" stroke="white" stroke-opacity="0.24"/>
<path d="M78.165 298.718L74.477 296.752C73.426 296.193 72.547 295.358 71.934 294.337C71.322 293.316 70.999 292.147 71 290.956V283.194C71 282.878 71.126 282.574 71.35 282.35C71.574 282.126 71.878 282 72.194 282H84.136C84.452 282 84.756 282.126 84.98 282.35C85.204 282.574 85.33 282.878 85.33 283.194V290.956C85.331 292.147 85.008 293.316 84.396 294.337C83.783 295.358 82.904 296.193 81.853 296.752L78.165 298.718ZM72.194 283.194V290.956C72.193 291.931 72.458 292.887 72.959 293.722C73.46 294.558 74.18 295.241 75.04 295.698L78.165 297.365L81.29 295.699C82.15 295.241 82.87 294.558 83.371 293.723C83.873 292.887 84.137 291.931 84.136 290.956V283.194H72.194Z" fill="white"/>
<path d="M76.333 291.26L74.175 289.193L73 290.318L76.333 293.511L83 287.125L81.825 286L76.333 291.26Z" fill="white"/>
<g filter="url(#filter3_b_2001_330)">
<path d="M297.165 389H297.165C288.79 389 282 395.79 282 404.165V404.553C282 412.929 288.79 419.718 297.165 419.718H297.165C305.54 419.718 312.33 412.929 312.33 404.553V404.165C312.33 395.79 305.54 389 297.165 389Z" fill="white" fill-opacity="0.1"/>
</g>
<path d="M297.165 389.5H297.165C289.066 389.5 282.5 396.066 282.5 404.165V404.553C282.5 412.653 289.066 419.218 297.165 419.218H297.165C305.264 419.218 311.83 412.653 311.83 404.553V404.165C311.83 396.066 305.264 389.5 297.165 389.5Z" stroke="white" stroke-opacity="0.24"/>
<path d="M297.165 412.718L293.477 410.752C292.426 410.193 291.547 409.358 290.934 408.337C290.322 407.316 289.999 406.147 290 404.956V397.194C290 396.878 290.126 396.574 290.35 396.35C290.574 396.126 290.878 396 291.194 396H303.136C303.452 396 303.756 396.126 303.98 396.35C304.204 396.574 304.33 396.878 304.33 397.194V404.956C304.331 406.147 304.008 407.316 303.396 408.337C302.783 409.358 301.904 410.193 300.853 410.752L297.165 412.718ZM291.194 397.194V404.956C291.193 405.931 291.458 406.887 291.959 407.722C292.46 408.558 293.18 409.241 294.04 409.698L297.165 411.365L300.29 409.699C301.15 409.241 301.87 408.558 302.371 407.723C302.873 406.887 303.137 405.931 303.136 404.956V397.194H291.194Z" fill="white"/>
<path d="M295.333 405.26L293.175 403.193L292 404.318L295.333 407.511L302 401.125L300.825 400L295.333 405.26Z" fill="white"/>
<g filter="url(#filter4_b_2001_330)">
<path d="M308.33 162.165C308.33 153.79 301.54 147 293.165 147C284.79 147 278 153.79 278 162.165V162.553C278 170.929 284.79 177.718 293.165 177.718C301.54 177.718 308.33 170.929 308.33 162.553V162.165Z" fill="white" fill-opacity="0.1"/>
</g>
<path d="M293.165 170.718L289.477 168.752C288.426 168.193 287.547 167.358 286.934 166.337C286.322 165.316 285.999 164.147 286 162.956V155.194C286 154.878 286.126 154.574 286.35 154.35C286.574 154.126 286.878 154 287.194 154H299.136C299.452 154 299.756 154.126 299.98 154.35C300.204 154.574 300.33 154.878 300.33 155.194V162.956C300.331 164.147 300.008 165.316 299.396 166.337C298.783 167.358 297.904 168.193 296.853 168.752L293.165 170.718ZM287.194 155.194V162.956C287.193 163.931 287.458 164.887 287.959 165.722C288.46 166.558 289.18 167.241 290.04 167.698L293.165 169.365L296.29 167.699C297.15 167.241 297.87 166.558 298.371 165.723C298.873 164.887 299.137 163.931 299.136 162.956V155.194H287.194Z" fill="white"/>
<path d="M291.333 163.26L289.175 161.193L288 162.318L291.333 165.511L298 159.125L296.825 158L291.333 163.26Z" fill="white"/>
<g filter="url(#filter5_b_2001_330)">
<path d="M293.165 147.5H293.165C285.066 147.5 278.5 154.066 278.5 162.165V162.553C278.5 170.653 285.066 177.218 293.165 177.218H293.165C301.264 177.218 307.83 170.653 307.83 162.553V162.165C307.83 154.066 301.264 147.5 293.165 147.5Z" stroke="white" stroke-opacity="0.24"/>
</g>
<defs>
<filter id="filter0_b_2001_330" x="430" y="97" width="394" height="394" filterUnits="userSpaceOnUse" color-interpolation-filters="sRGB">
<feFlood flood-opacity="0" result="BackgroundImageFix"/>
<feGaussianBlur in="BackgroundImageFix" stdDeviation="5"/>
<feComposite in2="SourceAlpha" operator="in" result="effect1_backgroundBlur_2001_330"/>
<feBlend mode="normal" in="SourceGraphic" in2="effect1_backgroundBlur_2001_330" result="shape"/>
</filter>
<filter id="filter1_b_2001_330" x="-10" y="416" width="175" height="175" filterUnits="userSpaceOnUse" color-interpolation-filters="sRGB">
<feFlood flood-opacity="0" result="BackgroundImageFix"/>
<feGaussianBlur in="BackgroundImageFix" stdDeviation="5"/>
<feComposite in2="SourceAlpha" operator="in" result="effect1_backgroundBlur_2001_330"/>
<feBlend mode="normal" in="SourceGraphic" in2="effect1_backgroundBlur_2001_330" result="shape"/>
</filter>
<filter id="filter2_b_2001_330" x="59" y="271" width="38.3301" height="38.7183" filterUnits="userSpaceOnUse" color-interpolation-filters="sRGB">
<feFlood flood-opacity="0" result="BackgroundImageFix"/>
<feGaussianBlur in="BackgroundImageFix" stdDeviation="2"/>
<feComposite in2="SourceAlpha" operator="in" result="effect1_backgroundBlur_2001_330"/>
<feBlend mode="normal" in="SourceGraphic" in2="effect1_backgroundBlur_2001_330" result="shape"/>
</filter>
<filter id="filter3_b_2001_330" x="278" y="385" width="38.3301" height="38.7183" filterUnits="userSpaceOnUse" color-interpolation-filters="sRGB">
<feFlood flood-opacity="0" result="BackgroundImageFix"/>
<feGaussianBlur in="BackgroundImageFix" stdDeviation="2"/>
<feComposite in2="SourceAlpha" operator="in" result="effect1_backgroundBlur_2001_330"/>
<feBlend mode="normal" in="SourceGraphic" in2="effect1_backgroundBlur_2001_330" result="shape"/>
</filter>
<filter id="filter4_b_2001_330" x="274" y="143" width="38.3301" height="38.7183" filterUnits="userSpaceOnUse" color-interpolation-filters="sRGB">
<feFlood flood-opacity="0" result="BackgroundImageFix"/>
<feGaussianBlur in="BackgroundImageFix" stdDeviation="2"/>
<feComposite in2="SourceAlpha" operator="in" result="effect1_backgroundBlur_2001_330"/>
<feBlend mode="normal" in="SourceGraphic" in2="effect1_backgroundBlur_2001_330" result="shape"/>
</filter>
<filter id="filter5_b_2001_330" x="274" y="143" width="38.3301" height="38.7183" filterUnits="userSpaceOnUse" color-interpolation-filters="sRGB">
<feFlood flood-opacity="0" result="BackgroundImageFix"/>
<feGaussianBlur in="BackgroundImageFix" stdDeviation="2"/>
<feComposite in2="SourceAlpha" operator="in" result="effect1_backgroundBlur_2001_330"/>
<feBlend mode="normal" in="SourceGraphic" in2="effect1_backgroundBlur_2001_330" result="shape"/>
</filter>
<linearGradient id="paint0_linear_2001_330" x1="627" y1="459.555" x2="998.85" y2="-423.921" gradientUnits="userSpaceOnUse">
<stop stop-color="#142B38"/>
<stop offset="1" stop-color="#F2F7F9"/>
</linearGradient>
<linearGradient id="paint1_linear_2001_330" x1="77" y1="155.091" x2="250.154" y2="-256.299" gradientUnits="userSpaceOnUse">
<stop stop-color="#142B38"/>
<stop offset="1" stop-color="#F2F7F9"/>
</linearGradient>
<linearGradient id="paint2_linear_2001_330" x1="77" y1="581.091" x2="250.154" y2="169.701" gradientUnits="userSpaceOnUse">
<stop stop-color="#142B38"/>
<stop offset="1" stop-color="#F2F7F9"/>
</linearGradient>
</defs>
</svg>
