<svg width="20" height="13" viewBox="0 0 20 13" fill="none" xmlns="http://www.w3.org/2000/svg">
<path d="M1.11115 3.02519C0.671208 3.18898 0.447341 3.6784 0.611129 4.11834L3.28021 11.2876C3.444 11.7276 3.93342 11.9514 4.37336 11.7876C4.8133 11.6239 5.03717 11.1344 4.87338 10.6945L2.50087 4.3218L8.87356 1.94928C9.3135 1.7855 9.53737 1.29608 9.37358 0.856134C9.20979 0.416192 8.72037 0.192324 8.28043 0.356112L1.11115 3.02519ZM18.6172 12.6283C19.0441 12.8236 19.5485 12.6358 19.7438 12.2089C19.939 11.782 19.7513 11.2777 19.3244 11.0824L18.6172 12.6283ZM1.05415 4.59475L18.6172 12.6283L19.3244 11.0824L1.76128 3.0488L1.05415 4.59475Z" fill="white"/>
</svg>
